<svg xmlns="http://www.w3.org/2000/svg" width="64" height="64" viewBox="0 0 64 64"><rect width="100%" height="100%" fill="#bcbcbc"/><path fill="#000000" d="M13.67 29.785v3.62H13v-3.62zm1.33 3.62h-.62v-2.56h.38q.12 0 .16.11l.04.19q.06-.08.14-.14.07-.06.16-.11.08-.04.18-.07.09-.02.21-.02.24 0 .4.13.15.13.23.34.06-.12.15-.21.09-.1.2-.15.1-.06.23-.09.12-.02.24-.02.21 0 .38.06.16.06.27.19.12.12.18.31.05.18.05.41v1.63h-.61v-1.63q0-.25-.11-.37-.11-.13-.32-.13-.09 0-.17.04-.08.03-.14.09-.07.06-.1.16-.04.09-.04.21v1.63h-.62v-1.63q0-.26-.1-.38t-.3-.12q-.14 0-.25.07-.12.07-.22.18zm4.92-.66v-.43q-.26.01-.45.04-.18.03-.29.09-.11.05-.16.12-.04.07-.04.15 0 .16.09.23.1.07.25.07.19 0 .33-.06.14-.07.27-.21m-1.3-1.35-.11-.2q.44-.4 1.06-.4.23 0 .41.07.17.08.3.21.12.13.18.31.07.18.07.4v1.62h-.28q-.09 0-.14-.03-.05-.02-.07-.1l-.06-.19q-.1.09-.19.16-.09.06-.19.11-.1.04-.21.07-.12.02-.26.02-.16 0-.3-.04-.13-.05-.23-.14-.1-.08-.16-.21-.05-.13-.05-.31 0-.09.03-.19t.11-.18q.07-.09.19-.17.11-.08.29-.13.17-.06.39-.1.23-.03.52-.04v-.15q0-.26-.11-.38-.11-.13-.31-.13-.15 0-.25.04-.1.03-.18.08-.07.04-.13.08-.06.03-.14.03-.06 0-.11-.03-.04-.04-.07-.08m3.42.67q.12 0 .2-.04.09-.03.15-.08.05-.06.08-.13.03-.08.03-.18 0-.19-.11-.3-.12-.11-.35-.11-.22 0-.34.11-.11.11-.11.3 0 .09.03.17t.08.14q.06.05.15.08.08.04.19.04m.7 1.46q0-.08-.04-.13-.05-.05-.13-.07-.07-.03-.18-.04l-.22-.02q-.11 0-.24-.01-.12 0-.24-.02-.1.06-.16.13-.07.08-.07.18 0 .07.04.13.03.06.1.1.08.05.19.07.12.02.29.02t.3-.02q.12-.03.21-.08.08-.04.11-.11.04-.06.04-.13m-.12-2.6h.74v.23q0 .11-.14.14l-.23.04q.06.13.06.29 0 .19-.08.34-.08.16-.21.26-.14.11-.32.17t-.4.06q-.07 0-.14-.01-.07 0-.14-.02-.12.07-.12.16 0 .08.07.12.07.03.19.05.12.01.27.02.15 0 .31.02.15.01.3.04t.27.1q.12.06.19.18t.07.3q0 .17-.08.33-.09.16-.24.29-.16.12-.39.2-.24.07-.53.07t-.51-.05q-.21-.06-.35-.15-.15-.1-.22-.22t-.07-.25q0-.19.11-.31t.3-.19q-.1-.05-.16-.14t-.06-.23q0-.06.02-.12t.06-.12.11-.11q.06-.06.14-.1-.19-.11-.3-.28t-.11-.41q0-.19.07-.34.08-.16.22-.27.13-.11.32-.16.18-.06.4-.06.17 0 .31.03.15.04.27.1m1.61.9h1.17q0-.12-.03-.22-.04-.11-.11-.19-.06-.08-.17-.13-.1-.04-.24-.04-.27 0-.42.15t-.2.43m1.58.37h-1.59q.02.2.07.35.06.14.15.23.09.1.21.14.12.05.27.05t.26-.04q.11-.03.19-.07t.15-.08q.06-.04.11-.04.08 0 .12.06l.18.23q-.11.12-.23.2-.13.08-.27.13t-.28.07q-.15.02-.28.02-.27 0-.5-.09t-.4-.26q-.17-.18-.27-.43-.09-.26-.09-.6 0-.26.08-.49.09-.23.25-.4.15-.18.38-.27.23-.1.52-.1.24 0 .45.07.2.08.35.23t.23.36q.08.22.08.5 0 .14-.03.19-.03.04-.11.04m4.37-2.41h.6v3.62h-.35q-.08 0-.13-.03-.06-.02-.11-.09l-1.88-2.4q.01.16.01.3v2.22h-.59v-3.62h.35q.04 0 .08.01.03 0 .05.01.02.02.05.04l.05.05 1.89 2.42q-.01-.09-.01-.17-.01-.08-.01-.16zm2.44 1.02q.28 0 .52.09.23.09.4.26.16.17.25.42.09.24.09.54 0 .31-.09.55-.09.25-.25.42-.17.17-.4.26-.24.1-.52.1-.29 0-.52-.1-.24-.09-.4-.26-.17-.17-.26-.42-.09-.24-.09-.55 0-.3.09-.54.09-.25.26-.42.16-.17.4-.26.23-.09.52-.09m0 2.16q.32 0 .47-.21.16-.22.16-.63 0-.42-.16-.64-.15-.21-.47-.21-.33 0-.48.22-.16.21-.16.63 0 .41.16.63.15.21.48.21m2.59.48q-.33 0-.51-.19t-.18-.52v-1.43h-.26q-.05 0-.09-.04-.03-.03-.03-.09v-.25l.41-.06.13-.71q.01-.04.05-.07.03-.03.09-.03h.32v.81h.68v.44h-.68v1.39q0 .12.06.18.05.07.16.07.05 0 .09-.01t.07-.03.05-.03.05-.01q.02 0 .04.01t.04.04l.18.3q-.13.12-.31.17-.17.06-.36.06m4.6-3.12H38.2v1.07h1.36v.54H38.2v1.47h-.67v-3.62h2.28zm1.59.48q.28 0 .52.09.23.09.4.26.16.17.25.42.09.24.09.54 0 .31-.09.55-.09.25-.25.42-.17.17-.4.26-.24.1-.52.1-.29 0-.53-.1-.23-.09-.4-.26-.16-.17-.25-.42-.1-.24-.1-.55 0-.3.1-.54.09-.25.25-.42.17-.17.4-.26.24-.09.53-.09m0 2.16q.32 0 .47-.21.15-.22.15-.63 0-.42-.15-.64-.15-.21-.47-.21-.33 0-.48.22-.16.21-.16.63 0 .41.16.63.15.21.48.21m3.33-2.12h.61v2.56h-.37q-.13 0-.16-.11l-.04-.21q-.16.16-.35.26t-.45.1q-.21 0-.37-.07t-.27-.2-.16-.31q-.06-.18-.06-.4v-1.62h.62v1.62q0 .24.11.37.1.13.32.13.16 0 .3-.07t.27-.2zm1.76.11.04.2q.08-.08.17-.14.08-.07.18-.12.09-.04.2-.07.11-.02.24-.02.21 0 .38.07.16.07.27.2.11.12.16.3.06.18.06.4v1.63h-.62v-1.63q0-.24-.11-.37-.1-.13-.32-.13-.16 0-.3.08-.14.07-.27.2v1.85h-.62v-2.56h.38q.12 0 .16.11m3.89 1.69v-1.15q-.1-.13-.22-.18-.13-.05-.27-.05t-.25.05q-.12.05-.2.16t-.12.27-.04.38q0 .23.04.39.03.15.1.25t.16.14q.1.05.22.05.19 0 .33-.08.13-.08.25-.23m0-2.95H51v3.71h-.38q-.12 0-.15-.11l-.05-.25q-.16.18-.36.29t-.47.11q-.21 0-.38-.09-.18-.09-.3-.25-.13-.17-.2-.41-.07-.25-.07-.57 0-.28.08-.52.08-.25.22-.43.15-.18.35-.28t.45-.1q.22 0 .37.07.15.06.27.18z"/></svg>